
        <svg xmlns="http://www.w3.org/2000/svg" xmlns:xlink="http://www.w3.org/1999/xlink" version="1.1" width="3200" height="987.8757859996492" viewBox="0 0 3200 987.8757859996492">
			
			<g transform="scale(10) translate(10, 10)">
				<defs id="SvgjsDefs1011"/><g id="SvgjsG1012" featureKey="S6ay6y-0" transform="matrix(1.0488090453698813,0,0,1.0488090453698813,-12.44097238406374,-13.046135851386179)" fill="#fff"><g xmlns="http://www.w3.org/2000/svg"><polygon points="23.52,53.793 14.409,69.574 23.52,85.355 41.743,85.355 50.855,69.574 41.743,53.793  "/><polygon points="41.743,46.207 50.855,30.426 41.743,14.645 23.52,14.645 14.409,30.426 23.52,46.207  "/><polygon points="76.48,34.704 58.257,34.704 49.145,50.484 58.257,66.266 76.48,66.266 85.592,50.484  "/><path d="M77.753,32.498h-20.77L46.599,50.484l10.385,17.987h20.77l10.385-17.987L77.753,32.498z M76.48,66.266H58.257   l-9.112-15.781l9.112-15.781H76.48l9.111,15.781L76.48,66.266z"/><path d="M22.247,51.588L11.862,69.574l10.385,17.986h20.769l10.385-17.986L43.016,51.588H22.247z M41.743,85.355H23.52   l-9.111-15.781l9.111-15.781h18.223l9.112,15.781L41.743,85.355z"/><path d="M43.016,48.413l10.385-17.986L43.016,12.439H22.247L11.862,30.426l10.385,17.986H43.016z M23.52,14.645h18.223   l9.112,15.781l-9.112,15.781H23.52l-9.111-15.781L23.52,14.645z"/></g></g><g id="SvgjsG1013" featureKey="j5pGhi-0" transform="matrix(5.025769761754081,0,0,5.025769761754081,90.82193921890676,-19.7414810629684)" fill="#fff"><path d="M1.8262 4.941000000000001 l2.8809 0 q2.412109375 0 3.271484375 0.1953125 q1.2890625 0.29296875 2.099609375 1.264648438 t0.81055 2.3877 q0 1.19140625 -0.556640625 2.080078125 t-1.5967 1.3525 t-1.8018 0.46387 l4.1504 6.7383 l-1.7773 0 l-4.1504 -6.7383 l-1.8848 0 l0 6.7383 l-1.4453 0 l0 -14.482 z M3.2715 6.356999999999999 l0 4.9219 l2.4902 0.019531 q1.4453125 0 2.143554688 -0.2734375 t1.084 -0.87891 t0.38574 -1.3574 q0 -0.72265625 -0.3955078125 -1.318359375 t-1.0303 -0.85449 t-2.1289 -0.25879 l-2.5488 0 z M14.228496875 4.3260000000000005 q0.46875 0 0.8056640625 0.33203125 t0.33691 0.80078 t-0.33691 0.80566 t-0.80566 0.33691 t-0.80078 -0.33691 t-0.33203 -0.80566 t0.33203 -0.80078 t0.80078 -0.33203 z M13.544896875 8.73 l1.377 0 l0 10.713 l-1.377 0 l0 -10.713 z M22.832034375 8.203 q2.470703125 0 4.1015625 1.787109375 q1.474609375 1.640625 1.474609375 3.876953125 t-1.5625 3.9111 t-4.0137 1.6748 q-2.4609375 0 -4.018554688 -1.674804688 t-1.5576 -3.9111 q0 -2.2265625 1.474609375 -3.8671875 q1.630859375 -1.796875 4.1015625 -1.796875 z M22.832034375 9.551 q-1.708984375 0 -2.939453125 1.26953125 t-1.2305 3.0664 q0 1.162109375 0.5615234375 2.172851563 t1.5186 1.5527 t2.0898 0.54199 q1.15234375 0 2.104492188 -0.5419921875 t1.5088 -1.5527 t0.55664 -2.1729 q0 -1.796875 -1.23046875 -3.06640625 t-2.9395 -1.2695 z M36.0058625 8.203 q2.470703125 0 4.1015625 1.787109375 q1.50390625 1.630859375 1.50390625 3.876953125 q0.01953125 5.546875 0 5.634765625 l-1.4551 0 l0 -2.4316 q-1.142578125 2.12890625 -4.150390625 2.3828125 q-2.4609375 0 -4.018554688 -1.674804688 t-1.5576 -3.9111 q0 -2.2265625 1.474609375 -3.8671875 q1.630859375 -1.796875 4.1015625 -1.796875 z M36.0058625 9.551 q-1.708984375 0 -2.939453125 1.26953125 t-1.2305 3.0664 q0 1.162109375 0.6298828125 2.236328125 t2.1338 1.8164 q3.76953125 0.83984375 5.361328125 -3.427734375 q0.087890625 -1.3671875 -0.29296875 -2.6171875 q-0.2734375 -0.56640625 -0.751953125 -1.07421875 q-1.201171875 -1.26953125 -2.91015625 -1.26953125 z"/></g>
			</g>
		</svg>
	